# xmcd
#
# Track frame offsets: 
#        150
#        13035
#        32082
#        41322
#        54520
#        70835
#        83792
#        99385
#        118047
#        124690
#        140270
#        146367
#        161647
#        166012
#        177685
#        184157
#        203395
#        224300
#
# Disc length: 3134 seconds
#
# Revision: 0
# Processed by: cddbd v1.4PL0 Copyright (c) Steve Scherf et al.
# Submitted via: ExactAudioCopy v0.95a3
#
DISCID=f00c3c12
DTITLE=WorldStandard - MountainBallad
DYEAR=1999
DGENRE=Blues
TTITLE0=Prologue:LonePilgrim
TTITLE1=HawaiianGold
TTITLE2=AlohaOeBlues
TTITLE3=TheDrugCity
TTITLE4=ForeverGreen
TTITLE5=YellowMan
TTITLE6=RoxyOnTheBay
TTITLE7=FourStrongWinds
TTITLE8=Lament
TTITLE9=JohnSteinbeck'sTravelsWithCharley
TTITLE10=TranspacificHour
TTITLE11=Caroline
TTITLE12=OldFamilyTune
TTITLE13=MountainBallad
TTITLE14=DustBowlBallads
TTITLE15=TheGravesOfWrath
TTITLE16=Cowboy
TTITLE17=Epilogue:SunFun
EXTD=
EXTT0=
EXTT1=
EXTT2=
EXTT3=
EXTT4=
EXTT5=
EXTT6=
EXTT7=
EXTT8=
EXTT9=
EXTT10=
EXTT11=
EXTT12=
EXTT13=
EXTT14=
EXTT15=
EXTT16=
EXTT17=
PLAYORDER=
